# xmcd
#
# Track frame offsets:
#	150
#	13144
#	25918
#	40750
#	52547
#	67535
#	81855
#	95134
#	109989
#	124685
#	140057
#	156411
#	170754
#	184306
#	198249
#	212385
#	226768
#	239862
#
# Disc length: 3385 seconds
#
# Revision: 1
# Processed by: cddbd v1.5.2PL0 Copyright (c) Steve Scherf et al.
# Submitted via: audiograbber 1.83.01
#
DISCID=f50d3712
DTITLE=Διάφοροι - Σμύρνη - Η Μουσική Ζωή
DYEAR=1900
DGENRE=Ρεμπέτικα
TTITLE0=Σμυρναίϊκο μανέ μινόρε, Λευτέρης Μενεμενλής, Κων/λη 1911
TTITLE1=Ατζιγγάνα, Σμυρναίϊκη Εστουδιαντίνα, Κων/λη 1908-9(;)
TTITLE2=Χανουμάκι, Σπυρναίϊκη Εστουδιαντίνα, Κων/λη 1908-9(;)
TTITLE3=Μπαχάρ Γκελντί, Ovannes, Σμύρνη, 1912
TTITLE4=Τσιφτέ τελλή, Ελληνική Εστουδιαντίνα, Σμύρνη, 1909
TTITLE5=Η θάλασσ, Λευτέρης Μενεμενλής, Κων/λη 1911
TTITLE6=Νέο μελαχροινό, Λευτέρης Μενεμενλής, Σμύρνη 1910
TTITLE7=Σμυρνιά, Γιώργος Σαβαρής, Εστουδιαντίνα Βασιλάκη (Σιδερή) Σμύρνη 1911
TTITLE8=Σμυρνιοπούλα, Σμυρναϊκή Εστουδιαντίνα, Κων/λη 1908-9(;)
TTITLE9=Νύχτα εύμορφη, Estoudiantina Tchanaka, Κων/λη 1911(;)
TTITLE10=Ο γέρο Δήμος, Γιάννης Κοκκίνης, Κων/λη 1909
TTITLE11=Κλέφτικο Παύλος Μελάς, Λευτέρης Μενεμενλής, Σμύρνη 1912
TTITLE12=Γιαννιώτικο, Λευτέρης Μενεμενλής, Σμύρνη 1910
TTITLE13=Αδαμαμάν, Γιάννης Τσανάκας, Σμύρνη 1910
TTITLE14=Σμυρνέϊκο μανέ ματζόρε, Λευτέρης Μενεμενλής, Κων/λη 1911
TTITLE15=Απτάλ χαβασί-τετράχορδον, Λευτέρης Μενεμενλής, Σμύρνη 1912
TTITLE16=Μενεμέν ζεϊβέκ, Estoudiantina Smyrniote, Κων/λη(;) 1910-11(;)
TTITLE17=Ανάμνησις Σμύρνης, Γιάννης Αγγελόπουλος, Αθήνα 1906-7
EXTD=Σμυρναίϊκα τραγούδια 1906 - 1912 από το βιβλίο του Αριστομένη Καλυβιώτη "Σ
EXTD=μύρνη η Μουσική Ζωή 1900 - 1922. Επιμέλεια Νίκος Διονυσόπουλος.
EXTT0=
EXTT1=
EXTT2=
EXTT3=
EXTT4=
EXTT5=
EXTT6=
EXTT7=
EXTT8=
EXTT9=
EXTT10=
EXTT11=
EXTT12=
EXTT13=
EXTT14=
EXTT15=
EXTT16=
EXTT17=
PLAYORDER=
